<?xml version="1.0" standalone="no"?>
<!DOCTYPE svg PUBLIC "-//W3C//DTD SVG 20010904//EN"
 "http://www.w3.org/TR/2001/REC-SVG-20010904/DTD/svg10.dtd">
<svg version="1.0" xmlns="http://www.w3.org/2000/svg"
 width="700.000000pt" height="700.000000pt" viewBox="0 0 700.000000 700.000000"
 preserveAspectRatio="xMidYMid meet">
<metadata>
Created by potrace 1.11, written by Peter Selinger 2001-2013
</metadata>
<g transform="translate(0.000000,700.000000) scale(0.100000,-0.100000)"
fill="#000000" stroke="none">
<path d="M5020 6338 c-122 -14 -145 -18 -260 -48 -146 -38 -130 -33 -235 -73
-115 -44 -255 -110 -369 -176 -49 -28 -90 -51 -92 -51 -19 0 -349 -236 -489
-349 -246 -199 -624 -567 -854 -831 -41 -47 -80 -89 -86 -95 -20 -18 -259
-308 -376 -455 -535 -674 -1179 -1646 -1672 -2520 -60 -107 -126 -224 -147
-260 -21 -36 -67 -119 -103 -185 -35 -66 -79 -147 -97 -180 -18 -33 -75 -143
-127 -245 -52 -102 -100 -191 -105 -198 -6 -7 -9 -14 -7 -16 5 -4 341 54 479
83 52 11 111 23 130 26 19 3 42 8 50 10 8 2 28 6 44 9 16 3 52 10 80 16 28 6
60 12 71 14 92 19 630 141 665 151 40 12 199 51 241 60 9 2 33 8 55 14 21 5
89 22 149 37 61 14 157 40 215 56 58 17 114 32 126 34 32 6 506 145 694 204
287 89 811 268 895 305 17 7 98 38 180 70 83 31 164 63 180 70 17 8 104 45
195 83 393 166 899 424 1165 593 474 301 791 574 1038 896 26 34 47 66 47 71
0 6 4 12 8 14 14 5 102 157 144 247 68 144 115 298 135 436 10 63 10 321 1
400 -29 260 -165 588 -365 880 -349 508 -745 801 -1203 890 -99 19 -294 26
-400 13z"/>
</g>
</svg>
