<?xml version="1.0" encoding="utf-8"?>
<!-- Generator: Adobe Illustrator 19.2.0, SVG Export Plug-In . SVG Version: 6.00 Build 0)  -->
<svg version="1.1" id="Calque_1" xmlns="http://www.w3.org/2000/svg" xmlns:xlink="http://www.w3.org/1999/xlink" x="0px" y="0px"
	 viewBox="0 0 129.1 58.7" style="enable-background:new 0 0 129.1 58.7;" xml:space="preserve">
<g id="Calque_1_1_">
	<g>
		<g>
			<path d="M3.1,182.5H1.6v-13.6h2c2.6,0,5,0.7,5,3.7c0,2.1-1.3,3.6-3.4,3.7l4.3,6.1H7.6l-4.1-6H3.1L3.1,182.5L3.1,182.5z
				 M3.1,175.2h0.5c1.7,0,3.4-0.3,3.4-2.4c0-2.2-1.6-2.4-3.5-2.4H3.1C3.1,170.3,3.1,175.2,3.1,175.2z"/>
			<path d="M12.3,168.9h7v1.4h-5.5v4h5.4v1.4h-5.4v5.3h5.5v1.4h-7V168.9z"/>
			<path d="M28.9,171.5c-0.5-0.9-1.2-1.5-2.3-1.5c-1.2,0-2.3,0.9-2.3,2.1c0,1.2,1.2,1.7,2.1,2.1l0.9,0.4c1.8,0.8,3.3,1.7,3.3,3.8
				c0,2.4-1.9,4.2-4.3,4.2c-2.2,0-3.8-1.4-4.2-3.5l1.5-0.4c0.2,1.4,1.3,2.5,2.7,2.5c1.5,0,2.8-1.1,2.8-2.6c0-1.6-1.2-2.1-2.5-2.7
				l-0.8-0.4c-1.6-0.7-3-1.5-3-3.5c0-2.1,1.8-3.5,3.8-3.5c1.5,0,2.8,0.8,3.5,2.1L28.9,171.5z"/>
			<path d="M37.4,182.5h-1.5v-12.2h-3.3v-1.4h8.1v1.4h-3.3V182.5z"/>
			<path d="M43.7,178.6l-1.6,3.9h-1.7l6.3-14.2l6.1,14.2h-1.7l-1.6-3.9H43.7z M46.7,171.8l-2.3,5.4H49L46.7,171.8z"/>
			<path d="M56.7,177c0,1,0,2.2,0.6,3c0.6,0.8,1.7,1.3,2.7,1.3c1,0,2-0.5,2.7-1.2c0.7-0.9,0.7-2.1,0.7-3.1v-8.1h1.5v8.5
				c0,1.5-0.1,2.6-1.2,3.8c-0.9,1-2.3,1.5-3.7,1.5c-1.3,0-2.6-0.5-3.5-1.4c-1.2-1.1-1.3-2.4-1.3-3.9v-8.5h1.5L56.7,177L56.7,177z"/>
			<path d="M70,182.5h-1.5v-13.6h2c2.6,0,5,0.7,5,3.7c0,2.1-1.3,3.6-3.4,3.7l4.3,6.1h-1.9l-4.1-6H70L70,182.5L70,182.5z M70,175.2
				h0.5c1.7,0,3.4-0.3,3.4-2.4c0-2.2-1.6-2.4-3.5-2.4H70V175.2z"/>
			<path d="M81.2,178.6l-1.6,3.9h-1.7l6.3-14.2l6.1,14.2h-1.7l-1.6-3.9H81.2z M84.1,171.8l-2.3,5.4h4.6L84.1,171.8z"/>
			<path d="M92.7,168.3l10.6,11.1v-10.5h1.5v14.2L94.2,172v10.5h-1.5V168.3z"/>
			<path d="M112.2,182.5h-1.5v-12.2h-3.3v-1.4h8.1v1.4h-3.3V182.5z"/>
		</g>
		<path d="M39.7,157.9c0,0,41.1-6.5,29.7-22.1C58,120.4,39.7,157.9,39.7,157.9z"/>
		<path d="M82.9,132.1c0,0,41.1,6.5,29.7,22C101.3,169.7,82.9,132.1,82.9,132.1z"/>
		<path d="M1.3,158.2c0,0,41.1-6.5,29.7-22C19.6,120.7,1.3,158.2,1.3,158.2z"/>
	</g>
	<g>
		<g>
			<path d="M17.3,12.2V0h6.1v31h-6.1V17.2H6.1V31H0V0h6.1v12.2L17.3,12.2L17.3,12.2z"/>
			<path d="M59.4,24.5L56.9,31h-6.4L62.6-0.8h4.7L79.1,31h-6.5l-2.4-6.5H59.4z M64.6,8.3L64.6,8.3l-3.5,11.3h7.4L64.6,8.3z"/>
			<path d="M106.1,0h6.1v17.4c0,3.8,0.3,9.2,5.5,9.2s5.5-5.4,5.5-9.2V0h6.1v18.6c0,7.6-3.2,13.3-11.5,13.3
				c-8.3,0-11.5-5.7-11.5-13.3L106.1,0L106.1,0z"/>
		</g>
		<g>
			<path d="M1.8,58.7H0.1V43.2h2.2C5.3,43.2,8,44,8,47.5c0,2.4-1.5,4.1-3.9,4.3L9,58.7H6.9l-4.7-6.8H1.8L1.8,58.7L1.8,58.7z
				 M1.8,50.4h0.5c1.9,0,3.9-0.4,3.9-2.8c0-2.5-1.9-2.8-3.9-2.8H1.8L1.8,50.4L1.8,50.4z"/>
			<path d="M12.3,43.2h8v1.6H14v4.6h6.1V51H14v6.1h6.3v1.6h-8V43.2z"/>
			<path d="M31.2,46.2c-0.6-1.1-1.4-1.7-2.7-1.7c-1.4,0-2.6,1-2.6,2.4c0,1.3,1.4,1.9,2.4,2.4l1,0.5c2,0.9,3.7,1.9,3.7,4.3
				c0,2.7-2.2,4.8-4.9,4.8c-2.5,0-4.3-1.6-4.8-4l1.7-0.5c0.2,1.6,1.4,2.9,3.1,2.9s3.2-1.3,3.2-3c0-1.8-1.4-2.4-2.8-3.1l-0.9-0.4
				c-1.8-0.8-3.4-1.7-3.4-4c0-2.4,2-3.9,4.3-3.9c1.7,0,3.2,0.9,4,2.4L31.2,46.2z"/>
			<path d="M40.8,58.7h-1.7V44.8h-3.7v-1.6h9.2v1.6h-3.8L40.8,58.7L40.8,58.7z"/>
			<path d="M48.1,54.3l-1.9,4.4h-1.9l7.1-16.2l6.9,16.2h-1.9l-1.8-4.4H48.1z M51.4,46.5l-2.6,6.2H54L51.4,46.5z"/>
			<path d="M62.8,52.4c0,1.1,0,2.5,0.7,3.4c0.7,0.9,2,1.5,3.1,1.5c1.1,0,2.3-0.5,3-1.4c0.8-1,0.8-2.3,0.8-3.5v-9.2h1.7v9.7
				c0,1.7-0.1,3-1.4,4.3c-1.1,1.1-2.6,1.8-4.2,1.8c-1.5,0-2.9-0.6-4-1.6c-1.4-1.3-1.5-2.7-1.5-4.5v-9.7h1.7V52.4z"/>
			<path d="M77.9,58.7h-1.7V43.2h2.2c2.9,0,5.6,0.8,5.6,4.3c0,2.4-1.5,4.1-3.9,4.3l4.9,6.9H83l-4.7-6.8h-0.4L77.9,58.7L77.9,58.7z
				 M77.9,50.4h0.5c1.9,0,3.9-0.4,3.9-2.8c0-2.5-1.9-2.8-3.9-2.8h-0.5L77.9,50.4L77.9,50.4z"/>
			<path d="M90.6,54.3l-1.9,4.4h-1.9L94,42.5l6.9,16.2h-1.9l-1.8-4.4H90.6z M94,46.5l-2.6,6.2h5.2L94,46.5z"/>
			<path d="M103.8,42.6l12,12.6v-12h1.7v16.1l-12-12.6v11.9h-1.7V42.6z"/>
			<path d="M125.9,58.7h-1.7V44.8h-3.7v-1.6h9.2v1.6h-3.8L125.9,58.7L125.9,58.7z"/>
		</g>
	</g>
</g>
<g id="Calque_2">
</g>
</svg>
